<svg width="12" height="12" viewBox="0 0 12 12" fill="none" xmlns="http://www.w3.org/2000/svg">
<g clip-path="url(#clip0_51_133)">
<path d="M6.32006 12C6.10772 12 5.92193 11.9204 5.76268 11.7611C5.44418 11.4426 5.44418 10.9383 5.76268 10.6464L10.0624 6.34659L5.76268 2.02029C5.44418 1.70179 5.44418 1.19749 5.76268 0.905532C6.08118 0.587031 6.58547 0.587031 6.87743 0.905532L11.7611 5.78922C12.0796 6.10772 12.0796 6.61201 11.7611 6.90397L6.87743 11.7611C6.74472 11.9204 6.53239 12 6.32006 12Z" fill="#6B6B6B"/>
<path d="M1.46291 12C1.25058 12 1.06478 11.9204 0.905532 11.7611C0.587031 11.4426 0.587031 10.9383 0.905532 10.6464L5.2053 6.34659L0.905532 2.02029C0.587031 1.70179 0.587031 1.19749 0.905532 0.905532C1.19749 0.587031 1.72833 0.587031 2.02029 0.905532L6.90397 5.78922C7.22247 6.10772 7.22247 6.61201 6.90397 6.90397L2.02029 11.7611C1.86104 11.9204 1.67524 12 1.46291 12Z" fill="#6B6B6B"/>
</g>
<defs>
<clipPath id="clip0_51_133">
<rect width="11.3333" height="11.3333" fill="white" transform="translate(0.666656 0.666656)"/>
</clipPath>
</defs>
</svg>
